<mxfile host="app.diagrams.net" modified="2021-02-28T13:23:12.053Z" agent="5.0 (Windows NT 10.0; Win64; x64) AppleWebKit/537.36 (KHTML, like Gecko) Chrome/88.0.4324.190 Safari/537.36" etag="ncoH9u57LVloO97dLwp8" version="14.4.3" type="github">
  <diagram name="Page-1" id="b5b7bab2-c9e2-2cf4-8b2a-24fd1a2a6d21">
    <mxGraphModel dx="1422" dy="772" grid="1" gridSize="10" guides="1" tooltips="1" connect="1" arrows="1" fold="1" page="1" pageScale="1" pageWidth="827" pageHeight="1169" background="#ffffff" math="0" shadow="0">
      <root>
        <mxCell id="0" />
        <mxCell id="1" parent="0" />
        <mxCell id="jFiyfstBEOnF0pXDczcP-1" value="Персональний компютер&amp;nbsp;&lt;br&gt;з браузером" style="shape=cube;whiteSpace=wrap;html=1;boundedLbl=1;backgroundOutline=1;darkOpacity=0.05;darkOpacity2=0.1;size=10;" vertex="1" parent="1">
          <mxGeometry x="120" y="70" width="190" height="120" as="geometry" />
        </mxCell>
        <mxCell id="jFiyfstBEOnF0pXDczcP-2" value="Веб сервер&amp;nbsp;" style="shape=cube;whiteSpace=wrap;html=1;boundedLbl=1;backgroundOutline=1;darkOpacity=0.05;darkOpacity2=0.1;size=10;" vertex="1" parent="1">
          <mxGeometry x="620" y="90" width="190" height="120" as="geometry" />
        </mxCell>
        <mxCell id="jFiyfstBEOnF0pXDczcP-3" value="доступ до інтернету" style="shape=cube;whiteSpace=wrap;html=1;boundedLbl=1;backgroundOutline=1;darkOpacity=0.05;darkOpacity2=0.1;size=10;" vertex="1" parent="1">
          <mxGeometry x="390" y="80" width="190" height="120" as="geometry" />
        </mxCell>
        <mxCell id="jFiyfstBEOnF0pXDczcP-4" value="" style="endArrow=none;html=1;entryX=0;entryY=0;entryDx=0;entryDy=55;entryPerimeter=0;exitX=1.016;exitY=0.608;exitDx=0;exitDy=0;exitPerimeter=0;" edge="1" parent="1" source="jFiyfstBEOnF0pXDczcP-1" target="jFiyfstBEOnF0pXDczcP-3">
          <mxGeometry width="50" height="50" relative="1" as="geometry">
            <mxPoint x="210" y="350" as="sourcePoint" />
            <mxPoint x="260" y="300" as="targetPoint" />
          </mxGeometry>
        </mxCell>
        <mxCell id="jFiyfstBEOnF0pXDczcP-6" value="" style="endArrow=none;html=1;entryX=1.011;entryY=0.492;entryDx=0;entryDy=0;entryPerimeter=0;exitX=0;exitY=0;exitDx=0;exitDy=55;exitPerimeter=0;" edge="1" parent="1" source="jFiyfstBEOnF0pXDczcP-2" target="jFiyfstBEOnF0pXDczcP-3">
          <mxGeometry width="50" height="50" relative="1" as="geometry">
            <mxPoint x="700" y="240" as="sourcePoint" />
            <mxPoint x="750" y="190" as="targetPoint" />
          </mxGeometry>
        </mxCell>
      </root>
    </mxGraphModel>
  </diagram>
</mxfile>
